<svg width="183" height="177" viewBox="0 0 183 177" fill="none" xmlns="http://www.w3.org/2000/svg">
<g opacity="0.66" filter="url(#filter0_f_3140_2223)">
<ellipse cx="91.7212" cy="88.1234" rx="24.7369" ry="22.0091" fill="#FF7A2F"/>
</g>
<mask id="mask0_3140_2223" style="mask-type:alpha" maskUnits="userSpaceOnUse" x="87" y="40" width="69" height="68">
<rect x="87.9844" y="40.312" width="67.4541" height="67.6195" fill="#C4C4C4"/>
</mask>
<g mask="url(#mask0_3140_2223)">
<path fill-rule="evenodd" clip-rule="evenodd" d="M72.2136 92.4168C68.3736 87.1368 66.4536 80.0968 66.4536 71.2968C66.4536 62.4968 68.3736 55.4568 72.2136 50.1768C76.1603 44.8968 81.5736 42.2568 88.4536 42.2568C95.3869 42.2568 100.774 44.8968 104.614 50.1768C108.507 55.4035 110.454 62.4435 110.454 71.2968C110.454 80.1502 108.507 87.1902 104.614 92.4168C100.774 97.6968 95.3869 100.337 88.4536 100.337C81.5736 100.337 76.1603 97.6968 72.2136 92.4168ZM106.02 93.4519C101.829 99.2105 95.9018 102.083 88.4536 102.083C81.0511 102.083 75.1076 99.2057 70.8147 93.4625L70.8078 93.4534L70.8011 93.4441C66.6798 87.7773 64.707 80.3394 64.707 71.2968C64.707 62.2543 66.6798 54.8163 70.8011 49.1495L70.8078 49.1403L70.8147 49.1311C75.1076 43.3879 81.0511 40.5103 88.4536 40.5103C95.9017 40.5103 101.829 43.3831 106.02 49.1415C110.202 54.7602 112.2 62.2047 112.2 71.2968C112.2 80.3888 110.202 87.8332 106.02 93.4519ZM88.4536 89.6303C92.0249 89.6303 94.6354 88.1954 96.4964 85.245C98.4331 82.1746 99.507 77.5938 99.507 71.2968C99.507 64.9999 98.4331 60.4191 96.4964 57.3486C94.6354 54.3983 92.0249 52.9634 88.4536 52.9634C84.9465 52.9634 82.3255 54.3904 80.4057 57.3568C78.4722 60.4272 77.4002 65.0055 77.4002 71.2968C77.4002 77.5882 78.4722 82.1664 80.4057 85.2369C82.3255 88.2033 84.9465 89.6303 88.4536 89.6303ZM78.9336 86.1768C76.7469 82.7102 75.6536 77.7502 75.6536 71.2968C75.6536 64.8435 76.7469 59.8835 78.9336 56.4168C81.1736 52.9502 84.3469 51.2168 88.4536 51.2168C92.6136 51.2168 95.7869 52.9502 97.9736 56.4168C100.16 59.8835 101.254 64.8435 101.254 71.2968C101.254 77.7502 100.16 82.7102 97.9736 86.1768C95.7869 89.6435 92.6136 91.3768 88.4536 91.3768C84.3469 91.3768 81.1736 89.6435 78.9336 86.1768ZM153.579 101.043H113.206V91.3837L133.231 70.9481L133.237 70.9418C137.927 66.2522 139.846 62.5826 139.846 59.8568C139.846 57.5626 139.172 55.946 137.978 54.7926C136.753 53.6084 135.133 52.9634 132.952 52.9634C130.907 52.9634 129.215 53.4642 127.804 54.4083C126.383 55.3589 125.142 56.8309 124.125 58.9362L123.301 60.6428L112.541 54.3197L113.208 52.882C115.047 48.9171 117.723 45.8401 121.245 43.7246C124.732 41.5764 128.622 40.5103 132.872 40.5103C138.23 40.5103 142.866 42.1944 146.675 45.5936L146.676 45.5947C150.613 49.114 152.539 53.8252 152.539 59.5368C152.539 65.8556 149.002 72.3532 142.523 78.9964L142.515 79.0042L132.849 88.6703H153.579V101.043ZM128.632 90.4168L141.272 77.7768C147.619 71.2702 150.792 65.1902 150.792 59.5368C150.792 54.2568 149.032 50.0435 145.512 46.8968C142.046 43.8035 137.832 42.2568 132.872 42.2568C128.926 42.2568 125.352 43.2435 122.152 45.2168C118.952 47.1368 116.499 49.9368 114.792 53.6168L122.552 58.1768C122.815 57.6337 123.094 57.1224 123.389 56.6429C125.621 53.0255 128.808 51.2168 132.952 51.2168C135.512 51.2168 137.592 51.9902 139.192 53.5368C140.792 55.0835 141.592 57.1902 141.592 59.8568C141.592 63.3235 139.219 67.4302 134.472 72.1768L114.952 92.0968V99.2968H151.832V90.4168H128.632Z" fill="#FF7A2F"/>
</g>
<defs>
<filter id="filter0_f_3140_2223" x="0.984375" y="0.114258" width="181.474" height="176.018" filterUnits="userSpaceOnUse" color-interpolation-filters="sRGB">
<feFlood flood-opacity="0" result="BackgroundImageFix"/>
<feBlend mode="normal" in="SourceGraphic" in2="BackgroundImageFix" result="shape"/>
<feGaussianBlur stdDeviation="33" result="effect1_foregroundBlur_3140_2223"/>
</filter>
</defs>
</svg>
