<svg width="182" height="177" viewBox="0 0 182 177" fill="none" xmlns="http://www.w3.org/2000/svg">
<g opacity="0.66" filter="url(#filter0_f_3140_2231)">
<ellipse cx="90.7515" cy="88.1234" rx="24.7369" ry="22.0091" fill="#FF7A2F"/>
</g>
<mask id="mask0_3140_2231" style="mask-type:alpha" maskUnits="userSpaceOnUse" x="87" y="40" width="68" height="68">
<rect x="87.0146" y="40.312" width="67.4541" height="67.6195" fill="#C4C4C4"/>
</mask>
<g mask="url(#mask0_3140_2231)">
<path fill-rule="evenodd" clip-rule="evenodd" d="M71.2439 92.4168C67.4039 87.1368 65.4839 80.0968 65.4839 71.2968C65.4839 62.4968 67.4039 55.4568 71.2439 50.1768C75.1905 44.8968 80.6039 42.2568 87.4839 42.2568C94.4172 42.2568 99.8039 44.8968 103.644 50.1768C107.537 55.4035 109.484 62.4435 109.484 71.2968C109.484 80.1502 107.537 87.1902 103.644 92.4168C99.8039 97.6968 94.4172 100.337 87.4839 100.337C80.6039 100.337 75.1905 97.6968 71.2439 92.4168ZM105.051 93.4519C100.859 99.2105 94.9321 102.083 87.4839 102.083C80.0813 102.083 74.1378 99.2057 69.8449 93.4625L69.8381 93.4534L69.8314 93.4441C65.7101 87.7773 63.7373 80.3394 63.7373 71.2968C63.7373 62.2543 65.7101 54.8163 69.8314 49.1495L69.8381 49.1403L69.8449 49.1311C74.1378 43.3879 80.0813 40.5103 87.4839 40.5103C94.9319 40.5103 100.859 43.3831 105.051 49.1415C109.233 54.7602 111.23 62.2047 111.23 71.2968C111.23 80.3888 109.233 87.8332 105.051 93.4519ZM87.4839 89.6303C91.0552 89.6303 93.6657 88.1954 95.5266 85.245C97.4634 82.1746 98.5373 77.5938 98.5373 71.2968C98.5373 64.9999 97.4634 60.4191 95.5266 57.3486C93.6657 54.3983 91.0552 52.9634 87.4839 52.9634C83.9768 52.9634 81.3557 54.3904 79.436 57.3568C77.5025 60.4272 76.4305 65.0055 76.4305 71.2968C76.4305 77.5882 77.5025 82.1664 79.436 85.2369C81.3557 88.2033 83.9768 89.6303 87.4839 89.6303ZM77.9639 86.1768C75.7772 82.7102 74.6839 77.7502 74.6839 71.2968C74.6839 64.8435 75.7772 59.8835 77.9639 56.4168C80.2039 52.9502 83.3772 51.2168 87.4839 51.2168C91.6439 51.2168 94.8172 52.9502 97.0039 56.4168C99.1905 59.8835 100.284 64.8435 100.284 71.2968C100.284 77.7502 99.1905 82.7102 97.0039 86.1768C94.8172 89.6435 91.6439 91.3768 87.4839 91.3768C83.3772 91.3768 80.2039 89.6435 77.9639 86.1768ZM150.47 51.7223L140.287 65.2033C143.62 66.3677 146.409 68.2225 148.601 70.7909C151.409 73.9636 152.79 77.8494 152.79 82.3368C152.79 88.374 150.725 93.2899 146.495 96.8668C142.406 100.37 137.348 102.083 131.443 102.083C126.798 102.083 122.619 101.032 118.959 98.8829L118.95 98.8777L118.941 98.8724C115.242 96.6412 112.59 93.4527 111.014 89.3654L110.478 87.9758L121.442 81.5984L122.135 83.608C122.857 85.7041 123.969 87.1624 125.422 88.1171C126.891 89.0822 128.859 89.6303 131.443 89.6303C134.347 89.6303 136.432 88.9098 137.896 87.6599C139.337 86.3785 140.097 84.6671 140.097 82.3368C140.097 80.0003 139.334 78.3264 137.907 77.1029C136.442 75.8474 134.354 75.1234 131.443 75.1234H128.429L123.54 67.7913L134.245 53.6834H112.577V41.5503H150.47V51.7223ZM137.763 51.9368H114.323V43.2968H148.723V51.1368L137.363 66.1768C137.987 66.3208 138.592 66.4863 139.177 66.6734C142.496 67.7342 145.198 69.4887 147.283 71.9368C149.79 74.7635 151.043 78.2302 151.043 82.3368C151.043 87.9368 149.15 92.3368 145.363 95.5368C141.63 98.7368 136.99 100.337 131.443 100.337C127.07 100.337 123.203 99.3502 119.843 97.3768C116.483 95.3502 114.083 92.4702 112.643 88.7368L120.483 84.1768C120.682 84.7528 120.909 85.2941 121.165 85.801C123.042 89.5182 126.468 91.3768 131.443 91.3768C134.643 91.3768 137.177 90.5768 139.043 88.9768C140.91 87.3235 141.843 85.1102 141.843 82.3368C141.843 79.5635 140.91 77.3768 139.043 75.7768C137.177 74.1768 134.643 73.3768 131.443 73.3768H129.363L125.683 67.8568L137.763 51.9368Z" fill="#FF7A2F"/>
</g>
<defs>
<filter id="filter0_f_3140_2231" x="0.0146484" y="0.114258" width="181.474" height="176.018" filterUnits="userSpaceOnUse" color-interpolation-filters="sRGB">
<feFlood flood-opacity="0" result="BackgroundImageFix"/>
<feBlend mode="normal" in="SourceGraphic" in2="BackgroundImageFix" result="shape"/>
<feGaussianBlur stdDeviation="33" result="effect1_foregroundBlur_3140_2231"/>
</filter>
</defs>
</svg>
