<svg width="186" height="177" viewBox="0 0 186 177" fill="none" xmlns="http://www.w3.org/2000/svg">
<g opacity="0.66" filter="url(#filter0_f_3140_2235)">
<ellipse cx="92.9248" cy="88.1234" rx="26.5527" ry="22.0091" fill="#FF7A2F"/>
</g>
<mask id="mask0_3140_2235" style="mask-type:alpha" maskUnits="userSpaceOnUse" x="88" y="40" width="74" height="68">
<rect x="88.9141" y="40.312" width="72.4057" height="67.6195" fill="#C4C4C4"/>
</mask>
<g mask="url(#mask0_3140_2235)">
<path fill-rule="evenodd" clip-rule="evenodd" d="M71.3279 92.4168C67.4879 87.1368 65.5679 80.0968 65.5679 71.2968C65.5679 62.4968 67.4879 55.4568 71.3279 50.1768C75.2745 44.8968 80.6879 42.2568 87.5679 42.2568C94.5012 42.2568 99.8879 44.8968 103.728 50.1768C107.621 55.4035 109.568 62.4435 109.568 71.2968C109.568 80.1502 107.621 87.1902 103.728 92.4168C99.8879 97.6968 94.5012 100.337 87.5679 100.337C80.6879 100.337 75.2745 97.6968 71.3279 92.4168ZM105.135 93.4519C100.943 99.2105 95.016 102.083 87.5679 102.083C80.1653 102.083 74.2218 99.2057 69.9289 93.4625L69.9221 93.4534L69.9153 93.4441C65.7941 87.7773 63.8213 80.3394 63.8213 71.2968C63.8213 62.2543 65.7941 54.8163 69.9153 49.1495L69.9221 49.1403L69.9289 49.1311C74.2218 43.3879 80.1653 40.5103 87.5679 40.5103C95.0159 40.5103 100.943 43.3831 105.135 49.1415C109.317 54.7602 111.314 62.2047 111.314 71.2968C111.314 80.3888 109.317 87.8332 105.135 93.4519ZM87.5679 89.6303C91.1392 89.6303 93.7496 88.1954 95.6106 85.245C97.5474 82.1746 98.6213 77.5938 98.6213 71.2968C98.6213 64.9999 97.5474 60.4191 95.6106 57.3486C93.7496 54.3983 91.1392 52.9634 87.5679 52.9634C84.0608 52.9634 81.4397 54.3904 79.52 57.3568C77.5865 60.4272 76.5144 65.0055 76.5144 71.2968C76.5144 77.5882 77.5865 82.1664 79.52 85.2369C81.4397 88.2033 84.0608 89.6303 87.5679 89.6303ZM78.0479 86.1768C75.8612 82.7102 74.7679 77.7502 74.7679 71.2968C74.7679 64.8435 75.8612 59.8835 78.0479 56.4168C80.2879 52.9502 83.4612 51.2168 87.5679 51.2168C91.7279 51.2168 94.9012 52.9502 97.0879 56.4168C99.2745 59.8835 100.368 64.8435 100.368 71.2968C100.368 77.7502 99.2745 82.7102 97.0879 86.1768C94.9012 89.6435 91.7279 91.3768 87.5679 91.3768C83.4612 91.3768 80.2879 89.6435 78.0479 86.1768ZM124.598 80.6568H142.118V66.0968H151.398V80.6568H157.798V89.2168H151.398V99.2968H142.118V89.2168H114.598V80.6568L133.878 43.2968H143.878L124.598 80.6568ZM140.372 90.9634H112.852V80.2327L132.814 41.5503H146.745L127.465 78.9103H140.372V64.3503H153.145V78.9103H159.545V90.9634H153.145V101.043H140.372V90.9634Z" fill="#FF7A2F"/>
</g>
<defs>
<filter id="filter0_f_3140_2235" x="0.37207" y="0.114258" width="185.105" height="176.018" filterUnits="userSpaceOnUse" color-interpolation-filters="sRGB">
<feFlood flood-opacity="0" result="BackgroundImageFix"/>
<feBlend mode="normal" in="SourceGraphic" in2="BackgroundImageFix" result="shape"/>
<feGaussianBlur stdDeviation="33" result="effect1_foregroundBlur_3140_2235"/>
</filter>
</defs>
</svg>
