<svg width="183" height="177" viewBox="0 0 183 177" fill="none" xmlns="http://www.w3.org/2000/svg">
<g opacity="0.66" filter="url(#filter0_f_3140_2243)">
<ellipse cx="91.8394" cy="88.1234" rx="25.0572" ry="22.0091" fill="#FF7A2F"/>
</g>
<mask id="mask0_3140_2243" style="mask-type:alpha" maskUnits="userSpaceOnUse" x="88" y="40" width="69" height="68">
<rect x="88.0537" y="40.312" width="68.3277" height="67.6195" fill="#C4C4C4"/>
</mask>
<g mask="url(#mask0_3140_2243)">
<path fill-rule="evenodd" clip-rule="evenodd" d="M71.9636 92.4168C68.1236 87.1368 66.2036 80.0968 66.2036 71.2968C66.2036 62.4968 68.1236 55.4568 71.9636 50.1768C75.9103 44.8968 81.3236 42.2568 88.2036 42.2568C95.1369 42.2568 100.524 44.8968 104.364 50.1768C108.257 55.4035 110.204 62.4435 110.204 71.2968C110.204 80.1502 108.257 87.1902 104.364 92.4168C100.524 97.6968 95.1369 100.337 88.2036 100.337C81.3236 100.337 75.9103 97.6968 71.9636 92.4168ZM105.77 93.4519C101.579 99.2105 95.6518 102.083 88.2036 102.083C80.8011 102.083 74.8576 99.2057 70.5647 93.4625L70.5578 93.4534L70.5511 93.4441C66.4298 87.7773 64.457 80.3394 64.457 71.2968C64.457 62.2543 66.4298 54.8163 70.5511 49.1495L70.5578 49.1403L70.5647 49.1311C74.8576 43.3879 80.8011 40.5103 88.2036 40.5103C95.6517 40.5103 101.579 43.3831 105.77 49.1415C109.952 54.7602 111.95 62.2047 111.95 71.2968C111.95 80.3888 109.952 87.8332 105.77 93.4519ZM88.2036 89.6303C91.7749 89.6303 94.3854 88.1954 96.2464 85.245C98.1831 82.1746 99.257 77.5938 99.257 71.2968C99.257 64.9999 98.1831 60.4191 96.2464 57.3486C94.3854 54.3983 91.7749 52.9634 88.2036 52.9634C84.6965 52.9634 82.0755 54.3904 80.1557 57.3568C78.2222 60.4272 77.1502 65.0055 77.1502 71.2968C77.1502 77.5882 78.2222 82.1664 80.1557 85.2369C82.0755 88.2033 84.6965 89.6303 88.2036 89.6303ZM78.6836 86.1768C76.4969 82.7102 75.4036 77.7502 75.4036 71.2968C75.4036 64.8435 76.4969 59.8835 78.6836 56.4168C80.9236 52.9502 84.0969 51.2168 88.2036 51.2168C92.3636 51.2168 95.5369 52.9502 97.7236 56.4168C99.9103 59.8835 101.004 64.8435 101.004 71.2968C101.004 77.7502 99.9103 82.7102 97.7236 86.1768C95.5369 89.6435 92.3636 91.3768 88.2036 91.3768C84.0969 91.3768 80.9236 89.6435 78.6836 86.1768ZM134.194 62.0968H135.234C135.592 62.0968 135.945 62.1035 136.294 62.1167C141.675 62.3211 146.068 64.1011 149.474 67.4568C153.154 70.9768 154.994 75.5635 154.994 81.2168C154.994 86.8168 153.154 91.4302 149.474 95.0568C145.794 98.5768 141.048 100.337 135.234 100.337C129.368 100.337 124.594 98.5768 120.914 95.0568C117.234 91.4302 115.394 86.8168 115.394 81.2168C115.394 76.9502 116.514 73.1902 118.754 69.9368L136.514 43.2968H146.994L134.194 62.0968ZM117.308 68.9573L135.579 41.5503H150.296L137.44 60.4333C142.713 60.8395 147.169 62.7381 150.691 66.2033C154.749 70.0897 156.741 75.1493 156.741 81.2168C156.741 87.2411 154.743 92.3167 150.7 96.3008L150.691 96.31L150.681 96.319C146.63 100.194 141.429 102.083 135.234 102.083C128.991 102.083 123.762 100.197 119.707 96.319L119.698 96.31L119.688 96.3008C115.646 92.3167 113.648 87.2411 113.648 81.2168C113.648 76.6309 114.856 72.5231 117.308 68.9573ZM141.625 74.9572L141.616 74.9486C140.01 73.3861 137.934 72.5634 135.234 72.5634C132.41 72.5634 130.287 73.3973 128.692 74.9486C127.17 76.429 126.341 78.4525 126.341 81.2168C126.341 83.9697 127.163 86.0265 128.692 87.5648C130.283 89.0602 132.406 89.8703 135.234 89.8703C137.943 89.8703 140.023 89.0679 141.625 87.5566C143.205 86.0143 144.048 83.9605 144.048 81.2168C144.048 78.4672 143.203 76.4494 141.634 74.9657L141.625 74.9572ZM142.834 88.8168C140.861 90.6835 138.328 91.6168 135.234 91.6168C132.034 91.6168 129.448 90.6835 127.474 88.8168C125.554 86.8968 124.594 84.3635 124.594 81.2168C124.594 78.0702 125.554 75.5635 127.474 73.6968C129.448 71.7768 132.034 70.8168 135.234 70.8168C138.328 70.8168 140.861 71.7768 142.834 73.6968C144.808 75.5635 145.794 78.0702 145.794 81.2168C145.794 84.3635 144.808 86.8968 142.834 88.8168Z" fill="#FF7A2F"/>
</g>
<defs>
<filter id="filter0_f_3140_2243" x="0.782227" y="0.114258" width="182.114" height="176.018" filterUnits="userSpaceOnUse" color-interpolation-filters="sRGB">
<feFlood flood-opacity="0" result="BackgroundImageFix"/>
<feBlend mode="normal" in="SourceGraphic" in2="BackgroundImageFix" result="shape"/>
<feGaussianBlur stdDeviation="33" result="effect1_foregroundBlur_3140_2243"/>
</filter>
</defs>
</svg>
