<svg width="182" height="177" viewBox="0 0 182 177" fill="none" xmlns="http://www.w3.org/2000/svg">
<g opacity="0.66" filter="url(#filter0_f_3140_2227)">
<ellipse cx="91.2183" cy="88.1234" rx="24.7369" ry="22.0091" fill="#FF7A2F"/>
</g>
<mask id="mask0_3140_2227" style="mask-type:alpha" maskUnits="userSpaceOnUse" x="87" y="40" width="68" height="68">
<rect x="87.4814" y="40.312" width="67.4541" height="67.6195" fill="#C4C4C4"/>
</mask>
<g mask="url(#mask0_3140_2227)">
<path fill-rule="evenodd" clip-rule="evenodd" d="M71.7107 92.4168C67.8707 87.1368 65.9507 80.0968 65.9507 71.2968C65.9507 62.4968 67.8707 55.4568 71.7107 50.1768C75.6573 44.8968 81.0707 42.2568 87.9507 42.2568C94.884 42.2568 100.271 44.8968 104.111 50.1768C108.004 55.4035 109.951 62.4435 109.951 71.2968C109.951 80.1502 108.004 87.1902 104.111 92.4168C100.271 97.6968 94.884 100.337 87.9507 100.337C81.0707 100.337 75.6573 97.6968 71.7107 92.4168ZM105.518 93.4519C101.326 99.2105 95.3989 102.083 87.9507 102.083C80.5481 102.083 74.6046 99.2057 70.3117 93.4625L70.3049 93.4534L70.2982 93.4441C66.1769 87.7773 64.2041 80.3394 64.2041 71.2968C64.2041 62.2543 66.1769 54.8163 70.2982 49.1495L70.3049 49.1403L70.3117 49.1311C74.6046 43.3879 80.5481 40.5103 87.9507 40.5103C95.3987 40.5103 101.326 43.3831 105.517 49.1415C109.699 54.7602 111.697 62.2047 111.697 71.2968C111.697 80.3888 109.699 87.8332 105.518 93.4519ZM87.9507 89.6303C91.522 89.6303 94.1325 88.1954 95.9934 85.245C97.9302 82.1746 99.0041 77.5938 99.0041 71.2968C99.0041 64.9999 97.9302 60.4191 95.9934 57.3486C94.1325 54.3983 91.522 52.9634 87.9507 52.9634C84.4436 52.9634 81.8225 54.3904 79.9028 57.3568C77.9693 60.4272 76.8972 65.0055 76.8972 71.2968C76.8972 77.5882 77.9693 82.1664 79.9028 85.2369C81.8225 88.2033 84.4436 89.6303 87.9507 89.6303ZM78.4307 86.1768C76.244 82.7102 75.1507 77.7502 75.1507 71.2968C75.1507 64.8435 76.244 59.8835 78.4307 56.4168C80.6707 52.9502 83.844 51.2168 87.9507 51.2168C92.1107 51.2168 95.284 52.9502 97.4707 56.4168C99.6573 59.8835 100.751 64.8435 100.751 71.2968C100.751 77.7502 99.6573 82.7102 97.4707 86.1768C95.284 89.6435 92.1107 91.3768 87.9507 91.3768C83.844 91.3768 80.6707 89.6435 78.4307 86.1768ZM110.488 47.3972L127.039 41.5503H137.085V101.043H124.392V55.4478L113.658 58.4929L110.488 47.3972ZM126.139 53.1368V99.2968H135.339V43.2968H127.339L112.619 48.4968L114.859 56.3368L126.139 53.1368Z" fill="#FF7A2F"/>
</g>
<defs>
<filter id="filter0_f_3140_2227" x="0.481445" y="0.114258" width="181.474" height="176.018" filterUnits="userSpaceOnUse" color-interpolation-filters="sRGB">
<feFlood flood-opacity="0" result="BackgroundImageFix"/>
<feBlend mode="normal" in="SourceGraphic" in2="BackgroundImageFix" result="shape"/>
<feGaussianBlur stdDeviation="33" result="effect1_foregroundBlur_3140_2227"/>
</filter>
</defs>
</svg>
