<svg width="183" height="177" viewBox="0 0 183 177" fill="none" xmlns="http://www.w3.org/2000/svg">
<g opacity="0.66" filter="url(#filter0_f_3140_2239)">
<ellipse cx="91.6637" cy="88.1234" rx="25.0572" ry="22.0091" fill="#FF7A2F"/>
</g>
<mask id="mask0_3140_2239" style="mask-type:alpha" maskUnits="userSpaceOnUse" x="87" y="40" width="70" height="68">
<rect x="87.8779" y="40.312" width="68.3277" height="67.6195" fill="#C4C4C4"/>
</mask>
<g mask="url(#mask0_3140_2239)">
<path fill-rule="evenodd" clip-rule="evenodd" d="M71.7878 92.4168C67.9478 87.1368 66.0278 80.0968 66.0278 71.2968C66.0278 62.4968 67.9478 55.4568 71.7878 50.1768C75.7345 44.8968 81.1478 42.2568 88.0278 42.2568C94.9612 42.2568 100.348 44.8968 104.188 50.1768C108.081 55.4035 110.028 62.4435 110.028 71.2968C110.028 80.1502 108.081 87.1902 104.188 92.4168C100.348 97.6968 94.9612 100.337 88.0278 100.337C81.1478 100.337 75.7345 97.6968 71.7878 92.4168ZM105.595 93.4519C101.403 99.2105 95.476 102.083 88.0278 102.083C80.6253 102.083 74.6818 99.2057 70.3889 93.4625L70.382 93.4534L70.3753 93.4441C66.254 87.7773 64.2812 80.3394 64.2812 71.2968C64.2812 62.2543 66.254 54.8163 70.3753 49.1495L70.382 49.1403L70.3889 49.1311C74.6818 43.3879 80.6253 40.5103 88.0278 40.5103C95.4759 40.5103 101.403 43.3831 105.594 49.1415C109.776 54.7602 111.774 62.2047 111.774 71.2968C111.774 80.3888 109.777 87.8332 105.595 93.4519ZM88.0278 89.6303C91.5991 89.6303 94.2096 88.1954 96.0706 85.245C98.0073 82.1746 99.0813 77.5938 99.0813 71.2968C99.0813 64.9999 98.0073 60.4191 96.0706 57.3486C94.2096 54.3983 91.5991 52.9634 88.0278 52.9634C84.5208 52.9634 81.8997 54.3904 79.9799 57.3568C78.0464 60.4272 76.9744 65.0055 76.9744 71.2968C76.9744 77.5882 78.0464 82.1664 79.9799 85.2369C81.8997 88.2033 84.5208 89.6303 88.0278 89.6303ZM78.5078 86.1768C76.3212 82.7102 75.2278 77.7502 75.2278 71.2968C75.2278 64.8435 76.3212 59.8835 78.5078 56.4168C80.7478 52.9502 83.9212 51.2168 88.0278 51.2168C92.1878 51.2168 95.3612 52.9502 97.5478 56.4168C99.7345 59.8835 100.828 64.8435 100.828 71.2968C100.828 77.7502 99.7345 82.7102 97.5478 86.1768C95.3612 89.6435 92.1878 91.3768 88.0278 91.3768C83.9212 91.3768 80.7478 89.6435 78.5078 86.1768ZM120.268 43.2968H151.468V51.9368H128.748L127.788 64.4168H134.828C140.161 64.4168 144.668 66.0168 148.348 69.2168C152.028 72.3635 153.868 76.7368 153.868 82.3368C153.868 87.9368 151.974 92.3368 148.188 95.5368C144.454 98.7368 139.814 100.337 134.268 100.337C129.734 100.337 125.788 99.2968 122.428 97.2168C119.068 95.1368 116.668 92.1768 115.228 88.3368L123.148 83.7768C123.327 84.3629 123.535 84.915 123.771 85.4333C125.581 89.3956 129.08 91.3768 134.268 91.3768C137.414 91.3768 139.921 90.5768 141.788 88.9768C143.708 87.3235 144.668 85.1102 144.668 82.3368C144.668 79.6168 143.734 77.4568 141.868 75.8568C140.001 74.2035 137.521 73.3768 134.428 73.3768H118.108L120.268 43.2968ZM140.65 87.6521C142.144 86.3645 142.921 84.6552 142.921 82.3368C142.921 80.0657 142.167 78.4134 140.731 77.1829L140.72 77.1737L140.71 77.1643C139.234 75.8574 137.201 75.1234 134.428 75.1234H116.231L118.642 41.5503H153.214V53.6834H130.365L129.674 62.6703H134.828C140.537 62.6703 145.461 64.3943 149.488 67.8941C153.616 71.426 155.614 76.3178 155.614 82.3368C155.614 88.374 153.55 93.2899 149.32 96.8668C145.23 100.37 140.172 102.083 134.268 102.083C129.459 102.083 125.183 100.977 121.509 98.7019C117.807 96.4104 115.163 93.1372 113.592 88.9501L113.072 87.5626L124.178 81.1685L124.818 83.2669C125.498 85.4919 126.604 87.0307 128.073 88.0349C129.559 89.0504 131.579 89.6303 134.268 89.6303C137.116 89.6303 139.18 88.9111 140.65 87.6521Z" fill="#FF7A2F"/>
</g>
<defs>
<filter id="filter0_f_3140_2239" x="0.606445" y="0.114258" width="182.114" height="176.018" filterUnits="userSpaceOnUse" color-interpolation-filters="sRGB">
<feFlood flood-opacity="0" result="BackgroundImageFix"/>
<feBlend mode="normal" in="SourceGraphic" in2="BackgroundImageFix" result="shape"/>
<feGaussianBlur stdDeviation="33" result="effect1_foregroundBlur_3140_2239"/>
</filter>
</defs>
</svg>
